# Blender 3.3.0
# www.blender.org
mtllib outside.mtl
o Cube
v 5.000000 5.000000 5.000000
v -5.000000 5.000000 5.000000
v 5.000000 5.000000 -5.000000
v -5.000000 5.000000 -5.000000
v 5.000000 -5.000000 5.000000
v -5.000000 -5.000000 5.000000
v 5.000000 -5.000000 -5.000000
v -5.000000 -5.000000 -5.000000
vn 1.0000 -0.0000 -0.0000
vn -0.0000 -0.0000 -1.0000
vn -0.0000 -1.0000 -0.0000
vn -1.0000 -0.0000 -0.0000
vn -0.0000 1.0000 -0.0000
vn -0.0000 -0.0000 1.0000
vt 0.000424 1.997092
vt 0.999576 1.994533
vt -0.000386 0.997941
vt 0.998766 0.995381
vt -0.998727 1.999652
vt 0.001234 2.996244
vt 1.998727 1.991973
vt 1.000386 2.993684
vt -0.999537 1.000500
vt -0.001196 -0.001211
vt 0.002043 3.995396
vt 0.997956 -0.003770
vt 1.001195 3.992836
vt 1.997917 0.992822
s 0
usemtl Outside
f 1/1/1 5/5/1 7/9/1 3/3/1
f 4/4/2 3/3/2 7/10/2 8/12/2
f 8/13/3 7/11/3 5/6/3 6/8/3
f 6/7/4 2/2/4 4/4/4 8/14/4
f 2/2/5 1/1/5 3/3/5 4/4/5
f 6/8/6 5/6/6 1/1/6 2/2/6
