# Blender v3.2.2 OBJ File: 'wooden_table_02_4k.blend'
# www.blender.org
mtllib wooden_table_02_4k.mtl
o wooden_table_02_Cube.003
v 0.567208 0.736872 0.347106
v 0.561302 0.736872 0.353012
v 0.567208 0.793511 0.347106
v 0.529725 0.799418 0.315529
v 0.561302 0.793511 0.353012
v -0.561302 0.736872 0.353012
v -0.567208 0.736872 0.347106
v -0.529725 0.799418 0.315529
v -0.567208 0.793511 0.347106
v -0.561302 0.793511 0.353012
v 0.561302 0.736872 -0.353012
v 0.567208 0.736872 -0.347106
v 0.529725 0.799418 -0.315529
v 0.567208 0.793511 -0.347106
v 0.561302 0.793511 -0.353012
v -0.567208 0.736872 -0.347106
v -0.561302 0.736872 -0.353012
v -0.529725 0.799418 -0.315529
v -0.561302 0.793511 -0.353012
v -0.567208 0.793511 -0.347106
v -0.561302 0.731601 0.347106
v 0.561302 0.731601 0.347106
v -0.561302 0.731601 -0.347106
v 0.561302 0.731601 -0.347106
v -0.529110 0.773347 0.314780
v 0.529110 0.773347 0.314780
v -0.529110 0.773347 -0.314780
v 0.529110 0.773347 -0.314780
v 0.529110 0.733739 0.314780
v 0.531243 0.731601 0.316922
v -0.531243 0.731601 0.316922
v -0.529110 0.733739 0.314780
v 0.531243 0.731601 -0.316922
v 0.529110 0.733739 -0.314780
v -0.531243 0.731601 -0.316922
v -0.529110 0.733739 -0.314780
v 0.561302 0.799418 0.347106
v -0.561302 0.799418 0.347106
v -0.561302 0.799418 -0.347106
v 0.561302 0.799418 -0.347106
v -0.463096 -0.000125 -0.248199
v -0.458671 0.004075 -0.247986
v -0.462882 0.004075 -0.243775
v -0.421284 0.773744 -0.202356
v -0.417073 0.773744 -0.206568
v -0.508809 0.000125 -0.248191
v -0.508670 0.004075 -0.243775
v -0.512877 0.004323 -0.247973
v -0.486929 0.773744 -0.206568
v -0.482722 0.773744 -0.202356
v -0.463089 0.000125 -0.293912
v -0.462869 0.004323 -0.297981
v -0.458671 0.004075 -0.293774
v -0.417073 0.773744 -0.268005
v -0.421284 0.773744 -0.272213
v -0.508816 0.002601 -0.293919
v -0.512877 0.007054 -0.293781
v -0.508677 0.007054 -0.297980
v -0.482722 0.773744 -0.272213
v -0.486929 0.773744 -0.268005
v -0.463096 -0.000125 0.248199
v -0.458671 0.004075 0.247986
v -0.462882 0.004075 0.243775
v -0.421284 0.773744 0.202357
v -0.417073 0.773744 0.206568
v -0.508809 0.000125 0.248191
v -0.508670 0.004075 0.243775
v -0.512877 0.004323 0.247973
v -0.486929 0.773744 0.206568
v -0.482722 0.773744 0.202357
v -0.463089 0.000125 0.293912
v -0.462869 0.004323 0.297981
v -0.458671 0.004075 0.293774
v -0.417073 0.773744 0.268005
v -0.421284 0.773744 0.272213
v -0.508816 0.002601 0.293919
v -0.512877 0.007054 0.293781
v -0.508677 0.007054 0.297981
v -0.482722 0.773744 0.272213
v -0.486929 0.773744 0.268005
v 0.463096 -0.000125 -0.248199
v 0.458671 0.004074 -0.247986
v 0.462882 0.004075 -0.243775
v 0.421284 0.773744 -0.202357
v 0.417073 0.773744 -0.206568
v 0.508809 0.000125 -0.248191
v 0.508670 0.004075 -0.243775
v 0.512877 0.004323 -0.247973
v 0.486929 0.773744 -0.206568
v 0.482722 0.773744 -0.202357
v 0.463089 0.000125 -0.293912
v 0.462869 0.004323 -0.297981
v 0.458671 0.004074 -0.293774
v 0.417073 0.773744 -0.268005
v 0.421284 0.773744 -0.272213
v 0.508816 0.002601 -0.293919
v 0.512877 0.007054 -0.293781
v 0.508677 0.007054 -0.297981
v 0.482722 0.773744 -0.272213
v 0.486929 0.773744 -0.268005
v 0.463096 -0.000125 0.248199
v 0.458671 0.004074 0.247986
v 0.462882 0.004075 0.243775
v 0.421284 0.773744 0.202356
v 0.417073 0.773744 0.206568
v 0.508809 0.000125 0.248191
v 0.508670 0.004075 0.243775
v 0.512877 0.004323 0.247973
v 0.486929 0.773744 0.206568
v 0.482722 0.773744 0.202356
v 0.463089 0.000125 0.293912
v 0.462869 0.004323 0.297981
v 0.458671 0.004074 0.293774
v 0.417073 0.773744 0.268005
v 0.421284 0.773744 0.272213
v 0.508816 0.002601 0.293919
v 0.512877 0.007054 0.293781
v 0.508677 0.007054 0.297980
v 0.482722 0.773744 0.272213
v 0.486929 0.773744 0.268005
vt 0.012167 0.894395
vt 0.012161 0.862608
vt 0.401654 0.862517
vt 0.401672 0.894215
vt 0.770729 0.637544
vt 0.738930 0.637544
vt 0.738908 0.007387
vt 0.770625 0.007379
vt 0.011087 0.358772
vt 0.011087 0.004670
vt 0.605569 0.004670
vt 0.605569 0.358772
vt 0.665754 0.637544
vt 0.633954 0.637544
vt 0.633932 0.007387
vt 0.665648 0.007379
vt 0.012153 0.781665
vt 0.012159 0.749877
vt 0.401667 0.750059
vt 0.401653 0.781757
vt 0.402511 0.898447
vt 0.406213 0.894954
vt 0.402459 0.858019
vt 0.406193 0.861757
vt 0.669880 0.006541
vt 0.666388 0.002840
vt 0.629432 0.006581
vt 0.633174 0.002846
vt 0.774855 0.006541
vt 0.771365 0.002840
vt 0.734408 0.006581
vt 0.738150 0.002846
vt 0.402486 0.785988
vt 0.406185 0.782501
vt 0.402477 0.745559
vt 0.406213 0.749304
vt 0.670203 0.637542
vt 0.629261 0.637543
vt 0.012154 0.786116
vt 0.012153 0.745183
vt 0.775179 0.637542
vt 0.734237 0.637543
vt 0.012161 0.898847
vt 0.012163 0.857914
vt 0.030357 0.917428
vt 0.384349 0.917072
vt 0.384371 0.939343
vt 0.030379 0.939699
vt 0.791830 0.023428
vt 0.792136 0.620638
vt 0.793836 0.619438
vt 0.793540 0.024632
vt 0.815803 0.024621
vt 0.816101 0.619427
vt 0.686854 0.023428
vt 0.687161 0.620638
vt 0.012407 0.719528
vt 0.012407 0.366267
vt 0.606199 0.366267
vt 0.606199 0.719528
vt 0.385556 0.915367
vt 0.029151 0.915731
vt 0.030336 0.804709
vt 0.384312 0.804599
vt 0.384318 0.826869
vt 0.030343 0.826979
vt 0.385520 0.802895
vt 0.029131 0.803011
vt 0.688564 0.024632
vt 0.688861 0.619438
vt 0.710827 0.024621
vt 0.711126 0.619427
vt 0.611519 0.619791
vt 0.611679 0.024324
vt 0.029925 0.727445
vt 0.384741 0.727787
vt 0.716494 0.619791
vt 0.716655 0.024324
vt 0.029921 0.840165
vt 0.384711 0.840261
vt 0.413096 0.829099
vt 0.844696 0.829099
vt 0.844696 0.859196
vt 0.413096 0.859196
vt 0.413096 0.795490
vt 0.844696 0.795490
vt 0.844696 0.825587
vt 0.413096 0.825587
vt 0.413096 0.761885
vt 0.844696 0.761885
vt 0.844696 0.791983
vt 0.413096 0.791983
vt 0.413096 0.728276
vt 0.844696 0.728276
vt 0.844696 0.758374
vt 0.413096 0.758374
vt 0.107983 0.983687
vt 0.111358 0.984368
vt 0.108613 0.987108
vt 0.082406 0.983545
vt 0.081894 0.986785
vt 0.079217 0.984090
vt 0.108067 0.957990
vt 0.108635 0.954717
vt 0.111358 0.957486
vt 0.082448 0.957934
vt 0.079161 0.957325
vt 0.081842 0.954645
vt 0.413096 0.724762
vt 0.844696 0.724763
vt 0.888655 0.437483
vt 0.858557 0.437483
vt 0.858557 0.005879
vt 0.888655 0.005879
vt 0.922263 0.437483
vt 0.892166 0.437483
vt 0.892166 0.005879
vt 0.922263 0.005879
vt 0.955869 0.437483
vt 0.925771 0.437483
vt 0.925771 0.005879
vt 0.955869 0.005879
vt 0.989477 0.437483
vt 0.959380 0.437483
vt 0.959380 0.005879
vt 0.989477 0.005879
vt 0.221686 0.960258
vt 0.222316 0.956836
vt 0.225061 0.959577
vt 0.196110 0.960400
vt 0.192920 0.959855
vt 0.195597 0.957160
vt 0.221771 0.985955
vt 0.225061 0.986459
vt 0.222338 0.989228
vt 0.196151 0.986011
vt 0.195545 0.989300
vt 0.192865 0.986620
vt 0.992991 0.437483
vt 0.992991 0.005879
vt 0.961249 0.441373
vt 0.991346 0.441373
vt 0.991346 0.872978
vt 0.961249 0.872978
vt 0.927640 0.441373
vt 0.957737 0.441373
vt 0.957737 0.872978
vt 0.927640 0.872978
vt 0.894035 0.441373
vt 0.924132 0.441373
vt 0.924132 0.872978
vt 0.894035 0.872978
vt 0.860426 0.441373
vt 0.890524 0.441373
vt 0.890524 0.872978
vt 0.860426 0.872978
vt 0.054205 0.960486
vt 0.054834 0.957064
vt 0.057579 0.959805
vt 0.028628 0.960627
vt 0.025438 0.960082
vt 0.028115 0.957387
vt 0.054289 0.986182
vt 0.057579 0.986686
vt 0.054856 0.989456
vt 0.028669 0.986238
vt 0.028063 0.989527
vt 0.025383 0.986847
vt 0.856912 0.441373
vt 0.856912 0.872978
vt 0.845719 0.893331
vt 0.414117 0.893331
vt 0.414117 0.863233
vt 0.845719 0.863233
vt 0.845719 0.926939
vt 0.414117 0.926939
vt 0.414117 0.896842
vt 0.845719 0.896842
vt 0.845719 0.960544
vt 0.414117 0.960544
vt 0.414117 0.930447
vt 0.845719 0.930447
vt 0.845719 0.994153
vt 0.414117 0.994153
vt 0.414117 0.964055
vt 0.845719 0.964055
vt 0.163985 0.985789
vt 0.167323 0.986440
vt 0.164631 0.989129
vt 0.138369 0.985797
vt 0.137835 0.989092
vt 0.135147 0.986348
vt 0.164045 0.960168
vt 0.164650 0.956930
vt 0.167323 0.959689
vt 0.138385 0.960134
vt 0.135092 0.959522
vt 0.137781 0.956836
vt 0.845719 0.997667
vt 0.414117 0.997667
vn 1.0000 0.0000 -0.0000
vn -0.0000 0.0000 -1.0000
vn 0.0000 1.0000 0.0000
vn 0.0000 0.0000 1.0000
vn -1.0000 0.0000 0.0000
vn 0.0000 -1.0000 0.0000
vn 0.9985 -0.0540 -0.0000
vn 0.9985 -0.0541 0.0000
vn 0.0009 0.0335 -0.9994
vn 0.0008 0.0335 -0.9994
vn -0.9994 0.0337 0.0009
vn -0.9994 0.0337 0.0008
vn -0.9994 0.0339 0.0009
vn 0.0000 -0.0537 0.9986
vn 0.0527 -0.9972 0.0527
vn -0.1078 -0.9930 0.0487
vn 0.0486 -0.9930 -0.1078
vn -0.1121 -0.9873 -0.1122
vn 0.0008 0.0335 0.9994
vn 0.0009 0.0336 0.9994
vn -0.9994 0.0337 -0.0009
vn -0.9994 0.0337 -0.0008
vn -0.0000 -0.0537 -0.9986
vn -0.0000 -0.0538 -0.9986
vn 0.0527 -0.9972 -0.0527
vn -0.1078 -0.9930 -0.0486
vn 0.0486 -0.9930 0.1078
vn -0.1122 -0.9873 0.1122
vn -0.9985 -0.0540 -0.0000
vn -0.0008 0.0335 -0.9994
vn -0.0009 0.0334 -0.9994
vn 0.9994 0.0337 0.0009
vn 0.9994 0.0337 0.0008
vn 0.0000 -0.0539 0.9985
vn -0.0527 -0.9972 0.0527
vn 0.1078 -0.9930 0.0486
vn -0.0486 -0.9930 -0.1078
vn 0.1122 -0.9873 -0.1122
vn -0.9985 -0.0541 -0.0000
vn -0.0009 0.0335 0.9994
vn -0.0008 0.0335 0.9994
vn 0.9994 0.0337 -0.0009
vn 0.9994 0.0337 -0.0008
vn -0.0527 -0.9972 -0.0527
vn 0.1078 -0.9930 -0.0487
vn -0.0486 -0.9930 0.1078
vn 0.1121 -0.9873 0.1122
usemtl Table
s 1
f 12/1/1 14/2/1 3/3/1 1/4/1
f 17/5/2 19/6/2 15/7/2 11/8/2
f 18/9/3 8/10/3 4/11/3 13/12/3
f 2/13/4 5/14/4 10/15/4 6/16/4
f 7/17/5 9/18/5 20/19/5 16/20/5
f 22/21/6 1/4/1 2/22/4
f 3/3/1 37/23/3 5/24/4
f 21/25/6 6/16/4 7/26/5
f 38/27/3 9/28/5 10/15/4
f 24/29/6 11/8/2 12/30/1
f 40/31/3 14/32/1 15/7/2
f 23/33/6 16/20/5 17/34/2
f 39/35/3 19/36/2 20/19/5
f 21/25/6 22/37/6 2/13/4 6/16/4
f 1/4/1 3/3/1 5/24/4 2/22/4
f 37/38/3 38/27/3 10/15/4 5/14/4
f 9/28/5 7/26/5 6/16/4 10/15/4
f 23/33/6 21/39/6 7/17/5 16/20/5
f 38/40/3 39/35/3 20/19/5 9/18/5
f 19/36/2 17/34/2 16/20/5 20/19/5
f 24/29/6 23/41/6 17/5/2 11/8/2
f 39/42/3 40/31/3 15/7/2 19/6/2
f 14/32/1 12/30/1 11/8/2 15/7/2
f 22/21/6 24/43/6 12/1/1 1/4/1
f 40/44/3 37/23/3 3/3/1 14/2/1
f 34/45/5 29/46/5 26/47/5 28/48/5
f 33/49/6 35/50/6 23/41/6 24/29/6
f 36/51/4 34/52/4 28/53/4 27/54/4
f 31/55/6 30/56/6 22/37/6 21/25/6
f 25/57/6 27/58/6 28/59/6 26/60/6
f 30/61/6 33/62/6 24/43/6 22/21/6
f 32/63/1 36/64/1 27/65/1 25/66/1
f 35/67/6 31/68/6 21/39/6 23/33/6
f 32/69/2 29/70/2 30/56/6 31/55/6
f 36/64/1 32/63/1 31/68/6 35/67/6
f 34/52/4 36/51/4 35/50/6 33/49/6
f 29/46/5 34/45/5 33/62/6 30/61/6
f 29/70/2 32/69/2 25/71/2 26/72/2
f 4/73/3 8/74/3 38/27/3 37/38/3
f 8/75/3 18/76/3 39/35/3 38/40/3
f 18/77/3 13/78/3 40/31/3 39/42/3
f 13/79/3 4/80/3 37/23/3 40/44/3
f 53/81/7 54/82/7 45/83/8 42/84/7
f 58/85/9 59/86/9 55/87/10 52/88/10
f 48/89/11 49/90/12 60/91/13 57/92/11
f 43/93/14 44/94/14 50/95/14 47/96/14
f 41/97/15 42/98/7 43/99/14
f 46/100/16 47/101/14 48/102/11
f 51/103/17 52/104/10 53/105/7
f 56/106/18 57/107/11 58/108/9
f 46/100/16 41/97/15 43/99/14 47/101/14
f 42/109/7 45/110/8 44/94/14 43/93/14
f 49/90/12 48/89/11 47/96/14 50/95/14
f 56/106/18 46/100/16 48/102/11 57/107/11
f 59/86/9 58/85/9 57/92/11 60/91/13
f 51/103/17 56/106/18 58/108/9 52/104/10
f 54/82/7 53/81/7 52/88/10 55/87/10
f 41/97/15 51/103/17 53/105/7 42/98/7
f 46/100/16 56/106/18 51/103/17 41/97/15
f 73/111/7 62/112/7 65/113/7 74/114/7
f 78/115/19 72/116/19 75/117/19 79/118/20
f 68/119/21 77/120/22 80/121/22 69/122/22
f 63/123/23 67/124/23 70/125/23 64/126/24
f 61/127/25 63/128/23 62/129/7
f 66/130/26 68/131/21 67/132/23
f 71/133/27 73/134/7 72/135/19
f 76/136/28 78/137/19 77/138/22
f 66/130/26 67/132/23 63/128/23 61/127/25
f 62/139/7 63/123/23 64/126/24 65/140/7
f 69/122/22 70/125/23 67/124/23 68/119/21
f 76/136/28 77/138/22 68/131/21 66/130/26
f 79/118/20 80/121/22 77/120/22 78/115/19
f 71/133/27 72/135/19 78/137/19 76/136/28
f 74/114/7 75/117/19 72/116/19 73/111/7
f 61/127/25 62/129/7 73/134/7 71/133/27
f 66/130/26 61/127/25 71/133/27 76/136/28
f 93/141/29 82/142/29 85/143/29 94/144/29
f 98/145/30 92/146/30 95/147/30 99/148/31
f 88/149/32 97/150/33 100/151/33 89/152/33
f 83/153/14 87/154/14 90/155/14 84/156/34
f 81/157/35 83/158/14 82/159/29
f 86/160/36 88/161/32 87/162/14
f 91/163/37 93/164/29 92/165/30
f 96/166/38 98/167/30 97/168/33
f 86/160/36 87/162/14 83/158/14 81/157/35
f 82/169/29 83/153/14 84/156/34 85/170/29
f 89/152/33 90/155/14 87/154/14 88/149/32
f 96/166/38 97/168/33 88/161/32 86/160/36
f 99/148/31 100/151/33 97/150/33 98/145/30
f 91/163/37 92/165/30 98/167/30 96/166/38
f 94/144/29 95/147/30 92/146/30 93/141/29
f 81/157/35 82/159/29 93/164/29 91/163/37
f 86/160/36 81/157/35 91/163/37 96/166/38
f 113/171/29 114/172/29 105/173/39 102/174/29
f 118/175/40 119/176/40 115/177/41 112/178/41
f 108/179/42 109/180/43 120/181/43 117/182/42
f 103/183/23 104/184/23 110/185/23 107/186/23
f 101/187/44 102/188/29 103/189/23
f 106/190/45 107/191/23 108/192/42
f 111/193/46 112/194/41 113/195/29
f 116/196/47 117/197/42 118/198/40
f 106/190/45 101/187/44 103/189/23 107/191/23
f 102/199/29 105/200/39 104/184/23 103/183/23
f 109/180/43 108/179/42 107/186/23 110/185/23
f 116/196/47 106/190/45 108/192/42 117/197/42
f 119/176/40 118/175/40 117/182/42 120/181/43
f 111/193/46 116/196/47 118/198/40 112/194/41
f 114/172/29 113/171/29 112/178/41 115/177/41
f 101/187/44 111/193/46 113/195/29 102/188/29
f 106/190/45 116/196/47 111/193/46 101/187/44
